# xmcd
#
# Track frame offsets:
#	150
#	12330
#	28622
#	41080
#	54182
#	73787
#	89547
#	101600
#	113642
#	126385
#	141355
#	159235
#	174585
#	187915
#
# Disc length: 2702 seconds
#
# Revision: 1
# Processed by: cddbd v1.5.2PL0 Copyright (c) Steve Scherf et al.
# Submitted via: audiograbber 1.83.01
#
DISCID=ba0a8c0e
DTITLE=Curt and Roland - SolRegn
DYEAR=2000
DGENRE=Christian Gangsta Rap
TTITLE0=Livsresan
TTITLE1=Solregn
TTITLE2=En Tro Som Bär
TTITLE3=Jag Till Sions Berg Har Hunnit
TTITLE4=I Den Sena Midnattstid
TTITLE5=Halleluja, Snart Skall Dagen Gry
TTITLE6=Berd Dina Vingar/ Tryggäre Kan Ingen Vära
TTITLE7=Jag Kan Inte Förstå Någonting
TTITLE8=Lilla Maja
TTITLE9=Alla Dom Små
TTITLE10=Jag Kan Lita På Dig
TTITLE11=Vi Två
TTITLE12=Jesus Har Kallat Mig Till Broderskap Med Sig
TTITLE13=O, Jag Känner Till En Plats
EXTD=
EXTT0=
EXTT1=
EXTT2=
EXTT3=
EXTT4=
EXTT5=
EXTT6=
EXTT7=
EXTT8=
EXTT9=
EXTT10=
EXTT11=
EXTT12=
EXTT13=
PLAYORDER=
